<mxfile host="app.diagrams.net" modified="2024-01-12T11:51:48.274Z" agent="Mozilla/5.0 (Windows NT 10.0; Win64; x64) AppleWebKit/537.36 (KHTML, like Gecko) Chrome/120.0.0.0 Safari/537.36" etag="SxtVLQH8Sx-0XqZXNSpd" version="22.1.18" type="github">
  <diagram name="Page-1" id="us1CxVt0jZX3a21zXO3L">
    <mxGraphModel dx="1651" dy="706" grid="1" gridSize="10" guides="1" tooltips="1" connect="1" arrows="1" fold="1" page="1" pageScale="1" pageWidth="827" pageHeight="1169" math="0" shadow="0">
      <root>
        <mxCell id="0" />
        <mxCell id="1" parent="0" />
        <mxCell id="OPxrTK1-833b6q0ZOQIr-1" value="R3" style="whiteSpace=wrap;html=1;aspect=fixed;" vertex="1" parent="1">
          <mxGeometry x="374" y="270" width="80" height="80" as="geometry" />
        </mxCell>
        <mxCell id="OPxrTK1-833b6q0ZOQIr-2" value="R1" style="whiteSpace=wrap;html=1;aspect=fixed;" vertex="1" parent="1">
          <mxGeometry x="374" y="210" width="60" height="60" as="geometry" />
        </mxCell>
        <mxCell id="OPxrTK1-833b6q0ZOQIr-3" value="R2" style="whiteSpace=wrap;html=1;aspect=fixed;" vertex="1" parent="1">
          <mxGeometry x="434" y="170" width="100" height="100" as="geometry" />
        </mxCell>
        <mxCell id="OPxrTK1-833b6q0ZOQIr-4" value="Secret tunnel" style="rounded=0;whiteSpace=wrap;html=1;" vertex="1" parent="1">
          <mxGeometry x="534" y="210" width="80" height="20" as="geometry" />
        </mxCell>
        <mxCell id="OPxrTK1-833b6q0ZOQIr-5" value="VS&lt;br&gt;1" style="rounded=0;whiteSpace=wrap;html=1;" vertex="1" parent="1">
          <mxGeometry x="394" y="170" width="20" height="40" as="geometry" />
        </mxCell>
        <mxCell id="OPxrTK1-833b6q0ZOQIr-6" value="VS&lt;br&gt;3" style="rounded=0;whiteSpace=wrap;html=1;" vertex="1" parent="1">
          <mxGeometry x="404" y="350" width="20" height="40" as="geometry" />
        </mxCell>
      </root>
    </mxGraphModel>
  </diagram>
</mxfile>
